<?xml version="1.0" encoding="UTF-8" standalone="no"?>
<!DOCTYPE svg PUBLIC "-//W3C//DTD SVG 1.1//EN"
 "http://www.w3.org/Graphics/SVG/1.1/DTD/svg11.dtd">
<!-- Generated by graphviz version 9.0.0 (0)
 -->
<!-- Pages: 1 -->
<svg width="977pt" height="454pt"
 viewBox="0.00 0.00 977.25 454.00" xmlns="http://www.w3.org/2000/svg" xmlns:xlink="http://www.w3.org/1999/xlink">
<g id="graph0" class="graph" transform="scale(1 1) rotate(0) translate(4 450)">
<polygon fill="white" stroke="none" points="-4,4 -4,-450 973.25,-450 973.25,4 -4,4"/>
<text text-anchor="middle" x="484.62" y="-428.7" font-family="Times,serif" font-size="14.00">CLOS API</text>
<!-- sk -->
<g id="node1" class="node">
<title>sk</title>
<polygon fill="none" stroke="black" points="601.38,-374.25 601.38,-410.25 702.88,-410.25 702.88,-374.25 601.38,-374.25"/>
<text text-anchor="middle" x="652.12" y="-387.2" font-family="Times,serif" font-size="14.00">(skel :ID :AST)</text>
</g>
<!-- skmet -->
<g id="node3" class="node">
<title>skmet</title>
<polygon fill="none" stroke="black" points="0,-217.5 0,-253.5 318.25,-253.5 318.25,-217.5 0,-217.5"/>
<text text-anchor="middle" x="159.12" y="-230.45" font-family="Times,serif" font-size="14.00">(sk&#45;meta :NAME :PATH :VERSION :DESCRIPTION)</text>
</g>
<!-- sk&#45;&gt;skmet -->
<g id="edge1" class="edge">
<title>sk&#45;&gt;skmet</title>
<path fill="none" stroke="black" d="M601.05,-380.14C549.41,-368.48 467.55,-348.85 398.12,-327 332.81,-306.45 259.39,-277.78 211.37,-258.26"/>
<polygon fill="black" stroke="black" points="212.91,-255.11 202.32,-254.57 210.26,-261.59 212.91,-255.11"/>
</g>
<!-- skcmd -->
<g id="node5" class="node">
<title>skcmd</title>
<polygon fill="none" stroke="black" points="407,-290.5 407,-326.5 503.25,-326.5 503.25,-290.5 407,-290.5"/>
<text text-anchor="middle" x="455.12" y="-303.45" font-family="Times,serif" font-size="14.00">(sk&#45;command)</text>
</g>
<!-- sk&#45;&gt;skcmd -->
<g id="edge9" class="edge">
<title>sk&#45;&gt;skcmd</title>
<path fill="none" stroke="black" d="M610.35,-373.91C580.41,-361.49 539.87,-344.67 507.73,-331.33"/>
<polygon fill="black" stroke="black" points="509.16,-328.13 498.58,-327.53 506.48,-334.6 509.16,-328.13"/>
</g>
<!-- sktar -->
<g id="node6" class="node">
<title>sktar</title>
<polygon fill="none" stroke="black" points="518,-217.5 518,-253.5 590.25,-253.5 590.25,-217.5 518,-217.5"/>
<text text-anchor="middle" x="554.12" y="-230.45" font-family="Times,serif" font-size="14.00">(sk&#45;target)</text>
</g>
<!-- sk&#45;&gt;sktar -->
<g id="edge6" class="edge">
<title>sk&#45;&gt;sktar</title>
<path fill="none" stroke="black" d="M641.07,-373.8C624,-346.84 591.09,-294.87 571.02,-263.17"/>
<polygon fill="black" stroke="black" points="574.1,-261.51 565.8,-254.93 568.19,-265.25 574.1,-261.51"/>
</g>
<!-- sksrc -->
<g id="node7" class="node">
<title>sksrc</title>
<polygon fill="none" stroke="black" points="608.75,-217.5 608.75,-253.5 685.5,-253.5 685.5,-217.5 608.75,-217.5"/>
<text text-anchor="middle" x="647.12" y="-230.45" font-family="Times,serif" font-size="14.00">(sk&#45;source)</text>
</g>
<!-- sk&#45;&gt;sksrc -->
<g id="edge8" class="edge">
<title>sk&#45;&gt;sksrc</title>
<path fill="none" stroke="black" d="M651.56,-373.8C650.71,-347.3 649.07,-296.66 648.04,-264.84"/>
<polygon fill="black" stroke="black" points="651.55,-265.05 647.73,-255.16 644.55,-265.27 651.55,-265.05"/>
</g>
<!-- skrul -->
<g id="node9" class="node">
<title>skrul</title>
<polygon fill="none" stroke="black" points="436.5,-144.5 436.5,-180.5 673.75,-180.5 673.75,-144.5 436.5,-144.5"/>
<text text-anchor="middle" x="555.12" y="-157.45" font-family="Times,serif" font-size="14.00">(sk&#45;rule :TARGET :SOURCE :RECIPE)</text>
</g>
<!-- sk&#45;&gt;skrul -->
<g id="edge7" class="edge">
<title>sk&#45;&gt;skrul</title>
<path fill="none" stroke="black" d="M659.68,-373.86C676.02,-335.04 711.78,-242.72 694.12,-217 684.79,-203.4 671.48,-193.26 656.75,-185.7"/>
<polygon fill="black" stroke="black" points="658.28,-182.55 647.73,-181.5 655.32,-188.89 658.28,-182.55"/>
</g>
<!-- skcfg -->
<g id="node12" class="node">
<title>skcfg</title>
<polygon fill="none" stroke="black" points="699.12,-290.5 699.12,-326.5 775.12,-326.5 775.12,-290.5 699.12,-290.5"/>
<text text-anchor="middle" x="737.12" y="-303.45" font-family="Times,serif" font-size="14.00">(sk&#45;config)</text>
</g>
<!-- sk&#45;&gt;skcfg -->
<g id="edge3" class="edge">
<title>sk&#45;&gt;skcfg</title>
<path fill="none" stroke="black" d="M670.15,-373.91C681.98,-362.53 697.66,-347.46 710.87,-334.76"/>
<polygon fill="black" stroke="black" points="713.25,-337.32 718.03,-327.86 708.4,-332.27 713.25,-337.32"/>
</g>
<!-- sksni -->
<g id="node13" class="node">
<title>sksni</title>
<polygon fill="none" stroke="black" points="792.88,-290.5 792.88,-326.5 873.38,-326.5 873.38,-290.5 792.88,-290.5"/>
<text text-anchor="middle" x="833.12" y="-303.45" font-family="Times,serif" font-size="14.00">(sk&#45;snippet)</text>
</g>
<!-- sk&#45;&gt;sksni -->
<g id="edge4" class="edge">
<title>sk&#45;&gt;sksni</title>
<path fill="none" stroke="black" d="M688.87,-373.78C696.54,-370.18 704.58,-366.44 712.12,-363 735.2,-352.47 760.88,-341.07 782.63,-331.51"/>
<polygon fill="black" stroke="black" points="783.82,-334.81 791.57,-327.58 781.01,-328.4 783.82,-334.81"/>
</g>
<!-- skabb -->
<g id="node14" class="node">
<title>skabb</title>
<polygon fill="none" stroke="black" points="891,-290.5 891,-326.5 969.25,-326.5 969.25,-290.5 891,-290.5"/>
<text text-anchor="middle" x="930.12" y="-303.45" font-family="Times,serif" font-size="14.00">(sk&#45;abbrev)</text>
</g>
<!-- sk&#45;&gt;skabb -->
<g id="edge5" class="edge">
<title>sk&#45;&gt;skabb</title>
<path fill="none" stroke="black" d="M685.51,-373.86C694.03,-369.89 703.29,-365.97 712.12,-363 782.04,-339.49 805.75,-347.46 879.91,-327.39"/>
<polygon fill="black" stroke="black" points="880.57,-330.84 889.26,-324.77 878.69,-324.1 880.57,-330.84"/>
</g>
<!-- methods -->
<g id="node2" class="node">
<title>methods</title>
<polygon fill="none" stroke="black" points="721,-363.5 721,-421 931.25,-421 931.25,-363.5 721,-363.5"/>
<text text-anchor="middle" x="826.12" y="-403.7" font-family="Times,serif" font-size="14.00">(sk&#45;compile sk&#45;expand sk&#45;build</text>
<text text-anchor="middle" x="826.12" y="-387.2" font-family="Times,serif" font-size="14.00">sk&#45;run sk&#45;init sk&#45;new sk&#45;save</text>
<text text-anchor="middle" x="826.12" y="-370.7" font-family="Times,serif" font-size="14.00">sk&#45;tangle sk&#45;weave sk&#45;call sk&#45;print)</text>
</g>
<!-- skvcs -->
<g id="node4" class="node">
<title>skvcs</title>
<polygon fill="none" stroke="black" points="103.12,-144.5 103.12,-180.5 215.12,-180.5 215.12,-144.5 103.12,-144.5"/>
<text text-anchor="middle" x="159.12" y="-157.45" font-family="Times,serif" font-size="14.00">(sk&#45;vc&#45;meta :VC)</text>
</g>
<!-- skmet&#45;&gt;skvcs -->
<g id="edge2" class="edge">
<title>skmet&#45;&gt;skvcs</title>
<path fill="none" stroke="black" d="M159.12,-217.31C159.12,-209.73 159.12,-200.6 159.12,-192.04"/>
<polygon fill="black" stroke="black" points="162.63,-192.04 159.13,-182.04 155.63,-192.04 162.63,-192.04"/>
</g>
<!-- skdoc -->
<g id="node10" class="node">
<title>skdoc</title>
<polygon fill="none" stroke="black" points="233.38,-144.5 233.38,-180.5 328.88,-180.5 328.88,-144.5 233.38,-144.5"/>
<text text-anchor="middle" x="281.12" y="-157.45" font-family="Times,serif" font-size="14.00">(sk&#45;document)</text>
</g>
<!-- skmet&#45;&gt;skdoc -->
<g id="edge11" class="edge">
<title>skmet&#45;&gt;skdoc</title>
<path fill="none" stroke="black" d="M188.97,-217.13C204.77,-207.93 224.39,-196.52 241.46,-186.58"/>
<polygon fill="black" stroke="black" points="242.98,-189.75 249.86,-181.7 239.45,-183.7 242.98,-189.75"/>
</g>
<!-- skscr -->
<g id="node11" class="node">
<title>skscr</title>
<polygon fill="none" stroke="black" points="347.38,-144.5 347.38,-180.5 418.88,-180.5 418.88,-144.5 347.38,-144.5"/>
<text text-anchor="middle" x="383.12" y="-157.45" font-family="Times,serif" font-size="14.00">(sk&#45;script)</text>
</g>
<!-- skmet&#45;&gt;skscr -->
<g id="edge12" class="edge">
<title>skmet&#45;&gt;skscr</title>
<path fill="none" stroke="black" d="M222.06,-217.03C253.92,-207.88 293.37,-196.07 336.59,-181.4"/>
<polygon fill="black" stroke="black" points="337.6,-184.75 345.93,-178.2 335.33,-178.13 337.6,-184.75"/>
</g>
<!-- skpro -->
<g id="node15" class="node">
<title>skpro</title>
<polygon fill="none" stroke="black" points="416.88,-0.5 416.88,-107.5 521.38,-107.5 521.38,-0.5 416.88,-0.5"/>
<text text-anchor="start" x="424.88" y="-90.2" font-family="Times,serif" font-size="14.00">(sk&#45;project</text>
<text text-anchor="start" x="424.88" y="-73.7" font-family="Times,serif" font-size="14.00">:RULES</text>
<text text-anchor="start" x="424.88" y="-57.2" font-family="Times,serif" font-size="14.00">:DOCUMENTS</text>
<text text-anchor="start" x="424.88" y="-40.7" font-family="Times,serif" font-size="14.00">:SCRIPTS</text>
<text text-anchor="start" x="424.88" y="-24.2" font-family="Times,serif" font-size="14.00">:SNIPPETS</text>
<text text-anchor="start" x="424.88" y="-7.7" font-family="Times,serif" font-size="14.00">:ABBREVS)</text>
</g>
<!-- skvcs&#45;&gt;skpro -->
<g id="edge10" class="edge">
<title>skvcs&#45;&gt;skpro</title>
<path fill="none" stroke="black" d="M209.97,-144.03C263.46,-125.66 347.76,-96.69 405.6,-76.82"/>
<polygon fill="black" stroke="black" points="406.69,-80.15 415.01,-73.59 404.41,-73.53 406.69,-80.15"/>
</g>
<!-- skrec -->
<g id="node8" class="node">
<title>skrec</title>
<polygon fill="none" stroke="black" points="336.62,-217.5 336.62,-253.5 499.62,-253.5 499.62,-217.5 336.62,-217.5"/>
<text text-anchor="middle" x="418.12" y="-230.45" font-family="Times,serif" font-size="14.00">(sk&#45;recipe :COMMANDS)</text>
</g>
<!-- skcmd&#45;&gt;skrec -->
<g id="edge21" class="edge">
<title>skcmd&#45;&gt;skrec</title>
<path fill="none" stroke="black" d="M446.17,-290.31C441.99,-282.29 436.91,-272.55 432.23,-263.57"/>
<polygon fill="black" stroke="black" points="435.42,-262.12 427.7,-254.87 429.22,-265.36 435.42,-262.12"/>
</g>
<!-- sktar&#45;&gt;skrul -->
<g id="edge18" class="edge">
<title>sktar&#45;&gt;skrul</title>
<path fill="none" stroke="black" d="M554.37,-217.31C554.47,-209.73 554.6,-200.6 554.72,-192.04"/>
<polygon fill="black" stroke="black" points="558.22,-192.09 554.86,-182.04 551.22,-191.99 558.22,-192.09"/>
</g>
<!-- sksrc&#45;&gt;skrul -->
<g id="edge19" class="edge">
<title>sksrc&#45;&gt;skrul</title>
<path fill="none" stroke="black" d="M624.85,-217.31C613.3,-208.4 599,-197.36 586.36,-187.6"/>
<polygon fill="black" stroke="black" points="588.76,-185.04 578.71,-181.7 584.49,-190.58 588.76,-185.04"/>
</g>
<!-- skrec&#45;&gt;skrul -->
<g id="edge20" class="edge">
<title>skrec&#45;&gt;skrul</title>
<path fill="none" stroke="black" d="M451.64,-217.13C469.63,-207.81 492.03,-196.2 511.39,-186.17"/>
<polygon fill="black" stroke="black" points="512.87,-189.34 520.14,-181.63 509.65,-183.13 512.87,-189.34"/>
</g>
<!-- skrul&#45;&gt;skpro -->
<g id="edge13" class="edge">
<title>skrul&#45;&gt;skpro</title>
<path fill="none" stroke="black" d="M541.31,-144.39C535.06,-136.66 527.27,-127 519.13,-116.92"/>
<polygon fill="black" stroke="black" points="521.87,-114.75 512.87,-109.17 516.42,-119.15 521.87,-114.75"/>
</g>
<!-- skdoc&#45;&gt;skpro -->
<g id="edge15" class="edge">
<title>skdoc&#45;&gt;skpro</title>
<path fill="none" stroke="black" d="M311.75,-144.15C337.4,-129.62 374.83,-108.42 406.75,-90.34"/>
<polygon fill="black" stroke="black" points="408.17,-93.55 415.14,-85.58 404.72,-87.46 408.17,-93.55"/>
</g>
<!-- skscr&#45;&gt;skpro -->
<g id="edge14" class="edge">
<title>skscr&#45;&gt;skpro</title>
<path fill="none" stroke="black" d="M396.94,-144.39C403.19,-136.66 410.98,-127 419.12,-116.92"/>
<polygon fill="black" stroke="black" points="421.83,-119.15 425.38,-109.17 416.38,-114.75 421.83,-119.15"/>
</g>
<!-- sksni&#45;&gt;skpro -->
<g id="edge16" class="edge">
<title>sksni&#45;&gt;skpro</title>
<path fill="none" stroke="black" d="M821.23,-290.17C798.07,-257.56 743.85,-186.56 683.12,-144 636.85,-111.57 576.96,-87.94 532.3,-73.21"/>
<polygon fill="black" stroke="black" points="533.62,-69.96 523.03,-70.22 531.47,-76.62 533.62,-69.96"/>
</g>
<!-- skabb&#45;&gt;skpro -->
<g id="edge17" class="edge">
<title>skabb&#45;&gt;skpro</title>
<path fill="none" stroke="black" d="M912.06,-290.21C877.26,-257.69 797.39,-186.82 719.12,-144 659.07,-111.14 584.5,-86.44 532.5,-71.5"/>
<polygon fill="black" stroke="black" points="533.46,-68.14 522.89,-68.78 531.56,-74.87 533.46,-68.14"/>
</g>
</g>
</svg>
